<svg id="图层_1" data-name="图层 1" xmlns="http://www.w3.org/2000/svg" viewBox="0 0 44 44"><defs><style>.cls-1{fill:#ff6b5a;stroke:#e24b5d;}.cls-2,.cls-3{fill:#fff;}.cls-2{opacity:0.9;isolation:isolate;}.cls-3{stroke:#eb966a;stroke-linejoin:round;stroke-width:4px;}.cls-4{fill:#f1b58a;}.cls-5{fill:#f6c29c;}.cls-6{fill:#f6c29a;}.cls-7{fill:#e38d60;}</style></defs><title>未标题-1</title><path id="矩形_663-3" data-name="矩形 663-3" class="cls-1" d="M6.5.53h31a2,2,0,0,1,2,2V14a4,4,0,0,1-4,4H8.5a4,4,0,0,1-4-4V2.53A2,2,0,0,1,6.5.53Z"/><rect id="矩形_664-3" data-name="矩形 664-3" class="cls-2" x="12" y="1.1" width="3.75" height="10"/><rect id="矩形_664_拷贝-3" data-name="矩形 664 拷贝-3" class="cls-2" x="28.25" y="1.1" width="3.75" height="10"/><circle id="椭圆_1158_拷贝-3" data-name="椭圆 1158 拷贝-3" class="cls-3" cx="22" cy="23.03" r="17.5"/><circle id="椭圆_1158_拷贝_4-3" data-name="椭圆 1158 拷贝 4-3" class="cls-4" cx="22" cy="23.03" r="13.75"/><path id="矩形_666-3" data-name="矩形 666-3" class="cls-5" d="M22.92,9.33a13.67,13.67,0,0,1,5.5,1.55L14.68,34.67a13.83,13.83,0,0,1-4.1-4Z"/><path id="矩形_666_拷贝-3" data-name="矩形 666 拷贝-3" class="cls-6" d="M20.36,36.68a13.65,13.65,0,0,1-3.68-1L30.32,12.1A13.82,13.82,0,0,1,33,14.8Z"/><path id="形状_2_拷贝-3" data-name="形状 2 拷贝-3" class="cls-7" d="M26.94,33.36c-.28-.24-.57-.48-.84-.73a16.94,16.94,0,0,1-3.9-5A11.7,11.7,0,0,1,21,21.52a11.84,11.84,0,0,1,1.18-4.1A8.4,8.4,0,0,1,23.66,15a4.79,4.79,0,0,1,2.42-1.45,2.52,2.52,0,0,1,1.21,0,1.44,1.44,0,0,1,1.14,1.93,3.7,3.7,0,0,1-1,1.7c-.36.36-.73.71-1.05,1.1a10.12,10.12,0,0,0-2.45,7,12.3,12.3,0,0,0,2.95,7.79l.13.17Zm.24-.11c-.36-.51-.7-1-1-1.45a10.44,10.44,0,0,1-1.76-6.55,10,10,0,0,1,2.42-5.87,5.74,5.74,0,0,1,2.39-1.82,3.06,3.06,0,0,1,1.94-.15l.27.1a1.21,1.21,0,0,1,.6,1.93,3.05,3.05,0,0,1-1.15,1,9,9,0,0,0-2.74,2.24,9.13,9.13,0,0,0-1.82,4.21A10.55,10.55,0,0,0,27.15,33l0,.12,0,.1Zm-8.92-6.8a5.17,5.17,0,0,0-3.73,1.49c-.29.28-.61.54-.89.83a1.2,1.2,0,0,1-1.33.37,1.21,1.21,0,0,1-.77-1.07,2.89,2.89,0,0,1,1.16-2.82,5.38,5.38,0,0,1,2.5-1,6.45,6.45,0,0,1,6.2,3.05,4.52,4.52,0,0,1,.1,4,3.49,3.49,0,0,1-2.75,2.14,3.84,3.84,0,0,1-3.52-1,1.09,1.09,0,0,1-.29-1.24.62.62,0,0,1,.77-.41l.09,0c.57.25,1.11.54,1.69.79a4.58,4.58,0,0,0,1.17.38,2.45,2.45,0,0,0,2.58-1.85,2.84,2.84,0,0,0-1.09-3,2.56,2.56,0,0,0-1.89-.7ZM27.38,33c-.12-.42-.26-.83-.37-1.25a10.32,10.32,0,0,1-.38-3.41A7.54,7.54,0,0,1,30.69,22a2.5,2.5,0,0,1,1.86-.3,1.14,1.14,0,0,1,.9.85,1,1,0,0,1-.37,1.11,2.48,2.48,0,0,1-.92.54,6.38,6.38,0,0,0-3.37,2.23,6.54,6.54,0,0,0-1.41,3.26,8.67,8.67,0,0,0,0,3.12s0,.1,0,.15Z"/></svg>