<svg id="图层_1" data-name="图层 1" xmlns="http://www.w3.org/2000/svg" viewBox="0 0 30 30"><defs><style>.cls-1{fill:#a5a5ab;}</style></defs><title>1</title><path id="圆角矩形_1092_拷贝" data-name="圆角矩形 1092 拷贝" class="cls-1" d="M26,24H4a4,4,0,0,1-4-4V6A4,4,0,0,1,4,2H26a4,4,0,0,1,4,4V20A4,4,0,0,1,26,24ZM25,4H5A2.75,2.75,0,0,0,2,7V18.48C2,21,3.31,22,4.95,22H25a2.91,2.91,0,0,0,3-3V7A2.87,2.87,0,0,0,25,4ZM6,7A1,1,0,1,1,5,8,1,1,0,0,1,6,7ZM8,9h8l.15,0,.16,0,.2.1.13.09a1,1,0,0,1,.15.17l.07.08.05.1h0L20,15.74l3.12-6.23a1,1,0,0,1,1.37-.37h0a1,1,0,0,1,.37,1.37l-4,8A1,1,0,0,1,19,18.23L15.38,11H13v7a1,1,0,0,1-2,0V11H8A1,1,0,0,1,8,9ZM9,26H21a1,1,0,0,1,0,2H9a1,1,0,0,1,0-2Z"/></svg>